<svg xmlns="http://www.w3.org/2000/svg" viewBox="0 0 32 32">
  <style>
    @media (prefers-color-scheme: dark) {
      .favicon-background { fill: #252525; }
    }
  </style>
  <g>
    <rect class="favicon-background" width="32" height="32" rx="5" ry="5" fill="#fff"/>
    <g>
      <g>
        <path d="M25.88,14c-.12-.03-.23-.09-.32-.18-.09-.09-.15-.19-.18-.31-.03-.12-.03-.24,0-.36s.1-.23,.19-.31c.3-.28,.51-.64,.6-1.05,.09-.4,.05-.82-.11-1.2-.15-.39-.41-.72-.75-.95-.34-.24-.74-.37-1.15-.37-.21,0-.41,.03-.61,.09-.06,0-.13,0-.19,0-.11,0-.22-.02-.31-.07-.1-.05-.18-.12-.25-.2-.06-.08-.11-.18-.13-.29-.02-.1-.01-.21,.02-.31,.09-.3,.11-.63,.06-.94-.05-.31-.18-.61-.37-.86-.2-.27-.46-.48-.76-.63s-.63-.23-.96-.23c-.28,0-.55,.06-.8,.17s-.48,.27-.67,.47c-.06,.07-.14,.12-.23,.16-.08,.04-.18,.06-.27,.06-.15,0-.3-.05-.42-.15s-.21-.23-.25-.37c-.11-.45-.36-.86-.73-1.15-.37-.29-.82-.44-1.29-.43-.47,0-.92,.14-1.29,.43-.37,.29-.62,.69-.73,1.15-.04,.15-.12,.28-.25,.37-.12,.09-.27,.15-.42,.15-.09,0-.18-.02-.27-.06-.08-.04-.16-.09-.23-.16-.19-.2-.42-.36-.67-.48-.25-.11-.53-.17-.8-.17-.33,0-.66,.08-.96,.23-.3,.15-.56,.37-.76,.63-.19,.25-.32,.55-.37,.86-.05,.31-.03,.64,.06,.94,.03,.1,.03,.21,.02,.31-.02,.1-.06,.2-.13,.29-.07,.09-.15,.16-.25,.2-.1,.05-.21,.07-.31,.07-.06,0-.13,0-.19,0-.2-.06-.41-.09-.61-.09-.41,0-.81,.13-1.15,.37s-.6,.57-.75,.95c-.16,.38-.2,.8-.11,1.2,.09,.4,.3,.77,.6,1.05,.09,.09,.15,.19,.18,.31,.03,.12,.03,.24,0,.36-.03,.12-.1,.23-.18,.31-.09,.09-.2,.15-.32,.18-.45,.1-.86,.36-1.15,.73-.29,.37-.44,.82-.43,1.29,0,.47,.14,.92,.43,1.29s.69,.63,1.15,.73c.12,.03,.23,.09,.32,.18,.09,.09,.15,.19,.18,.31,.03,.12,.03,.24,0,.36-.03,.12-.1,.23-.18,.31-.3,.28-.51,.64-.6,1.05-.09,.4-.05,.82,.11,1.2,.15,.39,.41,.72,.75,.96,.34,.24,.74,.37,1.15,.37,.21,0,.41-.03,.61-.09,.06-.02,.13-.03,.19-.03,.11,0,.22,.02,.31,.07,.1,.05,.18,.12,.25,.2,.06,.08,.11,.18,.13,.29,.02,.1,.01,.21-.02,.31-.1,.3-.12,.63-.06,.94,.05,.31,.18,.61,.37,.86,.2,.26,.46,.48,.76,.63,.3,.15,.63,.23,.96,.23,.28,0,.55-.06,.8-.17,.25-.11,.48-.27,.67-.48,.06-.07,.14-.12,.23-.16,.09-.04,.18-.06,.27-.06,.15,0,.3,.05,.42,.15,.12,.09,.21,.23,.25,.37,.1,.45,.36,.86,.73,1.15,.37,.29,.82,.44,1.29,.43,.47,0,.92-.14,1.29-.43,.37-.29,.63-.69,.73-1.15,.04-.15,.12-.28,.25-.37,.12-.09,.27-.15,.42-.15,.09,0,.18,.02,.27,.06,.09,.04,.16,.09,.23,.16,.19,.2,.41,.36,.67,.47,.25,.11,.52,.17,.8,.17,.33,0,.66-.08,.96-.23s.56-.37,.76-.63c.19-.26,.32-.55,.37-.86,.05-.31,.03-.63-.06-.94-.03-.1-.03-.21-.02-.31,.02-.1,.06-.2,.13-.29,.07-.09,.15-.16,.25-.2,.1-.05,.21-.07,.31-.07,.06,0,.13,0,.19,.03,.2,.06,.41,.09,.61,.09,.41,0,.82-.14,1.15-.37,.34-.24,.6-.57,.75-.96,.16-.38,.19-.8,.11-1.2-.09-.4-.3-.77-.6-1.05-.09-.09-.15-.19-.19-.31-.03-.12-.03-.24,0-.36,.03-.12,.1-.23,.18-.31,.09-.09,.2-.15,.32-.18,.45-.11,.86-.36,1.15-.73,.29-.37,.44-.82,.43-1.29,0-.47-.14-.92-.43-1.29-.29-.37-.69-.62-1.14-.73Zm.36,2.69c-.14,.19-.35,.32-.59,.38-.29,.07-.56,.22-.78,.43-.21,.21-.37,.47-.45,.77-.08,.29-.08,.6,0,.89,.08,.29,.24,.56,.47,.78,.15,.14,.26,.32,.3,.52,.04,.2,.03,.41-.06,.63-.08,.2-.21,.37-.39,.49-.17,.12-.38,.19-.56,.19-.12,0-.24-.02-.31-.04-.17-.06-.34-.08-.5-.08-.27,0-.53,.06-.76,.17-.24,.12-.45,.29-.61,.5-.16,.21-.27,.45-.31,.71s-.04,.52,.04,.79c.05,.15,.06,.32,.03,.47-.03,.16-.09,.31-.18,.43-.11,.15-.25,.26-.42,.35-.16,.08-.34,.12-.51,.13-.14,0-.27-.03-.4-.09-.13-.06-.24-.14-.34-.24-.16-.17-.34-.3-.56-.39-.21-.09-.43-.14-.67-.14h0c-.37,0-.73,.13-1.03,.36-.29,.23-.5,.55-.6,.94-.05,.23-.19,.44-.37,.58-.19,.15-.39,.22-.7,.22-.23,0-.47-.07-.65-.22-.19-.15-.32-.35-.38-.61-.09-.36-.3-.69-.6-.92-.29-.23-.66-.35-1.04-.36-.23,0-.45,.04-.67,.14-.21,.09-.4,.22-.56,.39-.1,.1-.21,.18-.34,.24-.13,.06-.26,.09-.39,.09-.18,0-.36-.05-.52-.13-.17-.08-.31-.2-.41-.34-.09-.13-.16-.28-.19-.43-.03-.16-.02-.32,.04-.49,.07-.25,.09-.52,.04-.78-.05-.25-.16-.5-.31-.71-.16-.21-.37-.38-.61-.5-.23-.11-.48-.17-.73-.17-.17,0-.35,.02-.48,.07-.12,.03-.23,.05-.32,.05-.22,0-.42-.07-.6-.19-.18-.12-.31-.29-.4-.52-.08-.19-.1-.4-.05-.6,.04-.2,.15-.38,.33-.55,.21-.21,.37-.47,.45-.76,.08-.29,.08-.59,0-.9-.08-.29-.23-.55-.45-.76-.22-.21-.49-.36-.79-.44-.23-.05-.44-.19-.58-.37-.15-.19-.22-.42-.22-.69,0-.24,.07-.47,.22-.65,.15-.19,.35-.32,.62-.38,.29-.08,.55-.23,.76-.44,.21-.21,.37-.47,.45-.77,.08-.29,.07-.59,0-.88-.08-.29-.23-.55-.47-.78-.15-.14-.26-.32-.3-.52s-.03-.41,.06-.63c.08-.2,.21-.37,.38-.49,.17-.12,.38-.19,.58-.19,.11,0,.22,.02,.33,.05l.16,.03c.13,.02,.25,.02,.38,0,.24,0,.48-.07,.69-.17,.24-.12,.45-.29,.6-.5,.16-.21,.27-.45,.32-.71,.05-.26,.04-.52-.04-.8-.05-.15-.06-.31-.03-.47,.03-.16,.09-.31,.18-.43,.11-.14,.25-.26,.41-.34,.16-.08,.34-.13,.5-.13,.14,0,.28,.03,.41,.09,.13,.06,.24,.14,.34,.25,.16,.17,.34,.3,.56,.39,.21,.09,.43,.14,.67,.14h0c.37,0,.74-.13,1.03-.36,.29-.23,.51-.55,.61-.94,.05-.23,.18-.44,.37-.58s.4-.24,.65-.22h.04c.23-.03,.47,.07,.66,.22,.19,.15,.32,.35,.38,.61,.09,.36,.31,.68,.6,.91,.29,.23,.66,.36,1.04,.36,.23,0,.45-.05,.67-.14,.21-.09,.39-.22,.56-.39,.1-.1,.21-.18,.34-.24,.13-.06,.27-.09,.38-.09,.18,0,.36,.05,.53,.13,.16,.08,.31,.2,.41,.33,.1,.13,.16,.28,.19,.44,.03,.16,.02,.32-.04,.49-.07,.25-.08,.52-.04,.77,.05,.26,.16,.5,.31,.71,.16,.21,.37,.39,.61,.5,.22,.11,.46,.16,.7,.17,.13,.01,.25,0,.38,0l.15-.03c.11-.03,.22-.05,.32-.05,.21,0,.42,.07,.59,.19,.17,.12,.31,.29,.39,.52,.08,.19,.1,.4,.05,.6-.04,.2-.15,.38-.32,.54-.22,.21-.38,.48-.46,.76-.08,.29-.08,.6,0,.9,.08,.29,.23,.55,.44,.75,.21,.21,.47,.36,.79,.44,.23,.05,.44,.18,.58,.37,.15,.19,.22,.42,.22,.69,0,.24-.07,.47-.22,.66Z" fill="#f6cea0"/>
        <path d="M28.23,13.76c-.24-.31-.54-.59-.87-.8,.14-.28,.24-.57,.31-.88,.15-.71,.09-1.44-.17-2.11-.27-.67-.72-1.25-1.31-1.66-.55-.38-1.18-.6-1.86-.65,0-.16-.03-.31-.06-.47-.11-.55-.34-1.08-.68-1.53-.34-.45-.79-.82-1.3-1.06-.51-.25-1.07-.37-1.63-.37-.49,0-.97,.1-1.42,.3-.06,.03-.12,.06-.18,.08-.22-.33-.49-.63-.8-.87-.64-.5-1.43-.78-2.25-.76-.8-.02-1.61,.26-2.25,.76-.31,.24-.58,.54-.8,.87-.06-.03-.12-.06-.18-.09-.45-.2-.93-.3-1.41-.3-.57,0-1.13,.12-1.64,.37-.51,.25-.96,.62-1.3,1.06-.34,.45-.58,.98-.68,1.53-.03,.15-.05,.31-.06,.46-.67,.04-1.31,.26-1.86,.65-.59,.41-1.05,.99-1.31,1.66-.27,.67-.33,1.4-.17,2.11,.07,.31,.17,.6,.31,.88-.33,.22-.63,.49-.87,.8-.5,.64-.77,1.43-.77,2.24s.27,1.6,.77,2.24c.24,.31,.53,.58,.87,.8-.14,.28-.24,.57-.31,.88-.15,.71-.09,1.44,.17,2.11,.27,.67,.72,1.25,1.32,1.66,.55,.38,1.18,.6,1.87,.64,0,.15,.03,.31,.06,.46,.1,.55,.34,1.08,.68,1.53,.34,.45,.79,.82,1.3,1.07,.5,.24,1.05,.37,1.6,.37,.48,0,.99-.1,1.45-.3,.06-.03,.12-.06,.18-.09,.21,.33,.48,.62,.8,.87,.63,.49,1.41,.76,2.17,.76h.13c.8,0,1.58-.27,2.21-.76,.31-.25,.58-.54,.8-.87,.06,.03,.12,.06,.18,.09,.45,.2,.93,.3,1.41,.3,.55-.01,1.13-.12,1.64-.37,.51-.25,.96-.62,1.3-1.06,.34-.45,.58-.98,.68-1.54,.03-.15,.05-.3,.06-.46,.67-.04,1.31-.27,1.87-.65,.59-.41,1.04-.99,1.31-1.66,.26-.67,.33-1.4,.17-2.11-.06-.3-.17-.59-.31-.87,.33-.22,.63-.49,.87-.8,.5-.64,.77-1.43,.77-2.24s-.27-1.6-.77-2.24Zm-.79,3.86c-.36,.46-.87,.8-1.44,.94-.02,0-.04,.02-.06,.03-.02,.02-.03,.04-.03,.06s0,.05,0,.07c0,.02,.02,.04,.04,.06,.37,.37,.63,.83,.74,1.34,.11,.51,.07,1.04-.13,1.53-.19,.49-.52,.91-.95,1.2-.43,.3-.94,.46-1.46,.48-.26,0-.52-.04-.77-.11h-.03s-.04,0-.06,.01c-.02,0-.03,.02-.05,.04-.01,.02-.02,.03-.02,.05,0,.02,0,.04,0,.06,.11,.4,.13,.81,.05,1.22-.08,.4-.25,.79-.5,1.11-.25,.33-.57,.59-.94,.77-.37,.18-.78,.27-1.19,.27-.35,0-.7-.08-1.02-.22-.32-.14-.61-.35-.85-.6-.02-.02-.06-.04-.09-.04-.03,0-.06,.01-.08,.03-.02,.02-.04,.04-.04,.07-.13,.58-.46,1.09-.93,1.45-.47,.36-1.05,.56-1.64,.55-.59,.01-1.17-.18-1.63-.55-.47-.36-.79-.88-.93-1.45,0-.03-.02-.05-.04-.07-.02-.02-.05-.03-.08-.03-.04,0-.07,.02-.1,.04-.24,.26-.53,.46-.85,.6s-.67,.21-1.02,.22c-.41,0-.82-.09-1.19-.27-.37-.18-.69-.45-.94-.77-.25-.33-.42-.71-.5-1.11-.08-.4-.06-.82,.06-1.22,0-.02,0-.04,0-.06,0-.02-.01-.04-.02-.05-.01-.02-.03-.03-.04-.04-.02,0-.04-.01-.06-.01h-.03c-.25,.07-.51,.11-.77,.11-.52,0-1.03-.17-1.46-.47s-.76-.72-.96-1.21c-.19-.49-.24-1.02-.13-1.53,.11-.51,.37-.98,.75-1.34,.02-.02,.03-.03,.04-.06,0-.02,0-.05,0-.07,0-.02-.02-.04-.03-.06-.02-.02-.04-.03-.06-.03-.57-.14-1.08-.48-1.44-.94-.36-.46-.56-1.04-.56-1.62s.2-1.16,.56-1.62c.36-.46,.87-.8,1.44-.94,.02,0,.04-.02,.06-.03,.02-.02,.03-.04,.03-.06,0-.02,0-.05,0-.07,0-.02-.02-.04-.04-.06-.37-.36-.63-.83-.74-1.34-.11-.51-.07-1.04,.13-1.53s.52-.91,.95-1.2c.43-.3,.94-.46,1.46-.47,.26,0,.52,.04,.77,.11h.03s.04,0,.06-.01c.02,0,.03-.02,.04-.04,.01-.02,.02-.03,.02-.05,0-.02,0-.04,0-.06-.11-.4-.13-.81-.06-1.22,.08-.4,.25-.78,.5-1.11,.25-.33,.57-.59,.94-.77,.37-.18,.78-.27,1.19-.27,.35,0,.7,.07,1.02,.22,.32,.14,.61,.35,.85,.6,.01,.01,.03,.02,.04,.03,.02,0,.03,.01,.05,0,.03,0,.06-.01,.08-.03,.02-.02,.04-.04,.04-.07,.13-.58,.46-1.09,.93-1.45,.47-.36,1.04-.56,1.64-.55,.59-.01,1.17,.18,1.64,.55,.47,.36,.8,.88,.93,1.45,0,.03,.02,.05,.04,.07,.02,.02,.05,.03,.08,.03,.02,0,.03,0,.05,0,.02,0,.03-.02,.04-.03,.24-.26,.53-.46,.85-.6,.32-.14,.67-.21,1.02-.22,.41,0,.82,.09,1.19,.27,.37,.18,.69,.45,.94,.77,.25,.33,.42,.71,.5,1.11,.08,.4,.06,.82-.05,1.22,0,.02,0,.04,0,.06,0,.02,.01,.04,.02,.05,.01,.02,.03,.03,.04,.04,.02,0,.04,.01,.06,.01h.03c.25-.07,.51-.11,.77-.11,.52,.01,1.03,.18,1.46,.47,.43,.3,.76,.72,.95,1.2,.19,.49,.24,1.02,.13,1.53-.11,.51-.37,.98-.74,1.34-.02,.02-.03,.04-.04,.06,0,.02,0,.05,0,.07s.02,.04,.03,.06c.02,.02,.04,.03,.06,.03,.57,.14,1.08,.48,1.44,.94,.36,.46,.56,1.04,.56,1.62s-.2,1.16-.56,1.62Z" fill="#f6cea0"/>
      </g>
      <path d="M15.91,11.41c-.24,0-.48,0-.71,0-.15,0-.27-.11-.27-.24v-.16l-1.93,.76h0l.3,.09h.03c.23,.11,.49,.29,.5,.6v7.56h0c0,.05-.02,.09-.03,.13v.03s-.03,.08-.04,.11h0s-.03,.07-.04,.1v.02s-.04,.06-.06,.09h0s-.03,.06-.05,.08v.02c-.25,.3-.56,.39-.56,.39h1.19s.02,0,.03,0h1.45s-.31-.09-.55-.39c-.01-.02-.03-.04-.04-.05v-.02l-.04-.04v-.02l-.04-.04v-.03s-.03-.03-.03-.04v-.03s-.02-.03-.03-.04c0-.01,0-.02-.01-.03,0-.01,0-.03-.01-.04v-.04s-.02-.03-.02-.05c0-.01,0-.03,0-.04v-.04s-.01-.02-.01-.04v-2.69s2.74-.27,4.13-1.42c.44-.38,.74-.81,.86-1.29,.4-1.6-.65-3.2-4.01-3.2h0Zm2.1,4.21c-1.55,1.44-3.08,1.43-3.08,1.43v-3.41h0v-1.27h0v-.77c1.55-.16,3.82,.95,3.84,2.47,0,.63-.32,1.14-.76,1.55h0Z" fill="#f6cea0"/>
    </g>
  </g>
</svg>
